#tb 0: 1/25
#media_type 0: video
#codec_id 0: rawvideo
#dimensions 0: 720x576
#sar 0: 0/1
0,          0,          0,        1,   622080, 0x68c84e70
0,          1,          1,        1,   622080, 0xc29f7155
0,          2,          2,        1,   622080, 0x78900210
0,          3,          3,        1,   622080, 0x4d44c353
0,          4,          4,        1,   622080, 0xd230b3dd
0,          5,          5,        1,   622080, 0xd72a029c
0,          6,          6,        1,   622080, 0xc76acb50
0,          7,          7,        1,   622080, 0xf90816ab
0,          8,          8,        1,   622080, 0x56996b77
0,          9,          9,        1,   622080, 0x1784890f
0,         10,         10,        1,   622080, 0xbc4c81f2
0,         11,         11,        1,   622080, 0xab5f02ac
0,         12,         12,        1,   622080, 0x539bb59c
0,         13,         13,        1,   622080, 0xa34bf120
0,         14,         14,        1,   622080, 0xa671eaac
0,         15,         15,        1,   622080, 0x51d77a74
0,         16,         16,        1,   622080, 0x6d15c7b0
0,         17,         17,        1,   622080, 0x1bf7535a
0,         18,         18,        1,   622080, 0x8ed2e73c
0,         19,         19,        1,   622080, 0x9f4f86a6
0,         20,         20,        1,   622080, 0x95e05b22
0,         21,         21,        1,   622080, 0x29c570a0
0,         22,         22,        1,   622080, 0xc612f057
0,         23,         23,        1,   622080, 0xe782d106
0,         24,         24,        1,   622080, 0xeee9a3b7
